<svg xmlns="http://www.w3.org/2000/svg" viewBox="0 0 64 64" role="img" aria-label="AG">
  <defs>
    <linearGradient id="g" x1="0" y1="0" x2="1" y2="1">
      <stop offset="0%" stop-color="#7a4dff"/>
      <stop offset="55%" stop-color="#ff7d6b"/>
      <stop offset="100%" stop-color="#2bc7b4"/>
    </linearGradient>
  </defs>
  <rect x="4" y="4" width="56" height="56" rx="16" fill="#fff8ee"/>
  <rect x="4" y="4" width="56" height="56" rx="16" fill="url(#g)" fill-opacity="0.2"/>
  <path d="M16 46 27 18h10l11 28h-8l-2-6H26l-2 6h-8zm13-13h6l-3-9-3 9z" fill="#2c2332"/>
  <path d="M49 32h-9v6h4.2c-.9 1.6-2.7 2.6-5 2.6-3.8 0-6.7-2.9-6.7-6.9s2.8-6.8 6.7-6.8c2.2 0 4 .9 5.2 2.5l4.5-4.2c-2.2-2.8-5.4-4.5-9.7-4.5-7.4 0-13 5.5-13 13s5.6 13.1 13.2 13.1c6.9 0 11.6-4.7 11.6-11.8 0-1.1-.1-2-.3-2.8z" fill="#2c2332"/>
</svg>
